<svg xmlns="http://www.w3.org/2000/svg" width="101.333" height="101.333" preserveAspectRatio="xMidYMid meet" version="1.0" viewBox="0 0 76 76"><metadata>Created by potrace 1.11, written by Peter Selinger 2001-2013</metadata><g fill="#000" stroke="none"><path d="M337 643 c-2 -5 -8 -26 -12 -48 -5 -22 -9 -44 -11 -50 -23 -101 -34 -147 -38 -166 -2 -13 -12 -55 -21 -94 -37 -157 -40 -175 -23 -175 11 0 20 23 31 78 9 42 32 147 52 232 45 190 51 230 37 230 -6 0 -13 -3 -15 -7z" transform="translate(0.000000,76.000000) scale(0.100000,-0.100000)"/><path d="M516 578 c-82 -17 -147 -85 -159 -165 -12 -77 38 -174 106 -206 83 -40 169 -25 233 39 112 111 55 297 -101 332 -22 4 -58 5 -79 0z" transform="translate(0.000000,76.000000) scale(0.100000,-0.100000)"/><path d="M0 383 l0 -193 95 0 c69 0 95 3 96 13 1 6 2 92 3 190 1 150 -1 178 -14 181 -8 2 -52 4 -97 4 l-83 -1 0 -194z" transform="translate(0.000000,76.000000) scale(0.100000,-0.100000)"/></g></svg>