<?xml version="1.0" encoding="utf-8"?>
<!-- Generator: Adobe Illustrator 19.2.0, SVG Export Plug-In . SVG Version: 6.00 Build 0)  -->
<svg version="1.1" id="Layer_1" xmlns="http://www.w3.org/2000/svg" xmlns:xlink="http://www.w3.org/1999/xlink" x="0px" y="0px"
	 viewBox="0 0 376 251" style="enable-background:new 0 0 376 251;" xml:space="preserve">
<style type="text/css">
	.st0{fill:#97D8E1;}
	.st1{fill:#F15758;}
	.st2{fill:#7C87C3;}
	.st3{fill:#5DC8DA;}
</style>
<g>
	<g>
		<g>
			<path class="st0" d="M116.7,247.5H30.8c-14.9,0-27.1-12.5-27.1-27.9V31.4C3.7,16,15.7,3.5,30.4,3.5h314.3
				c15.4,0,27.5,12.3,27.5,27.9v188.2c0,15.6-12.1,27.9-27.5,27.9h-85.9c-10.6,0-20.4-6.9-24.6-17.3l-25-62.5
				c-3.6-9-11.9-14.8-21.3-14.8c-9.3,0-17.7,5.8-21.3,14.8l-25,62.5C137.5,240.7,127.7,247.5,116.7,247.5z M30.4,13.5
				c-9.2,0-16.6,8-16.6,17.9v188.2c0,9.9,7.7,17.9,17.1,17.9h85.9c6.9,0,13.1-4.3,15.8-11l25-62.5c5.1-12.8,17.1-21.1,30.6-21.1
				c13.5,0,25.5,8.3,30.6,21.1l25,62.5c2.6,6.6,8.8,11,15.3,11h85.9c9.8,0,17.5-7.9,17.5-17.9V31.4c0-10-7.7-17.9-17.5-17.9H30.4z
				 M269.3,171.7c-24.7,0-44.7-20.7-44.7-46.2c0-25.5,20.1-46.2,44.8-46.2c24.7,0,44.7,20.7,44.7,46.2c0,23.7-17.4,43.3-39.8,45.9
				v0.3L269.3,171.7z M268.2,161.7h1.1c19.2,0,34.8-16.2,34.8-36.2c0-19.9-15.6-36.2-34.7-36.2c-19.2,0-34.8,16.2-34.8,36.2
				C234.6,145.1,249.6,161,268.2,161.7z M106.7,171.7c-24.7,0-44.8-20.7-44.8-46.2S82,79.3,106.7,79.3c24.7,0,44.7,20.7,44.7,46.2
				S131.3,171.7,106.7,171.7z M106.7,89.3c-19.2,0-34.8,16.2-34.8,36.2s15.6,36.2,34.8,36.2c19.1,0,34.7-16.2,34.7-36.2
				S125.8,89.3,106.7,89.3z"/>
		</g>
	</g>
	<g>
		<g>
			<path class="st1" d="M116.7,247.5v-10c6.9,0,13.1-4.3,15.8-11l25-62.5c5.1-12.8,17.1-21.1,30.6-21.1c13.5,0,25.5,8.3,30.6,21.1
				l25,62.5c2.6,6.6,8.8,11,15.3,11h85.9c9.8,0,17.5-7.9,17.5-17.9V31.4h10v188.2c0,15.6-12.1,27.9-27.5,27.9h-85.9
				c-10.6,0-20.4-6.9-24.6-17.3l-25-62.5c-3.6-9-11.9-14.8-21.3-14.8c-9.3,0-17.7,5.8-21.3,14.8l-25,62.5
				C137.5,240.7,127.7,247.5,116.7,247.5z"/>
		</g>
	</g>
	<g>
		<g>
			<path class="st2" d="M30.8,247.5c-14.9,0-27.1-12.5-27.1-27.9V31.4C3.7,16,15.7,3.5,30.4,3.5v10c-9.2,0-16.6,8-16.6,17.9v188.2
				c0,9.9,7.7,17.9,17.1,17.9V247.5z"/>
		</g>
	</g>
	<g>
		<g>
			<path class="st3" d="M106.7,171.7c-24.7,0-44.8-20.7-44.8-46.2S82,79.3,106.7,79.3v10c-19.2,0-34.8,16.2-34.8,36.2
				s15.6,36.2,34.8,36.2c19.1,0,34.7-16.2,34.7-36.2h10C151.4,151,131.3,171.7,106.7,171.7z"/>
		</g>
	</g>
</g>
</svg>
