<svg enable-background="new 0 0 376 251" viewBox="0 0 376 251" xmlns="http://www.w3.org/2000/svg"><path d="m116.7 247.5h-85.9c-14.9 0-27.1-12.5-27.1-27.9v-188.2c0-15.4 12-27.9 26.7-27.9h314.3c15.4 0 27.5 12.3 27.5 27.9v188.2c0 15.6-12.1 27.9-27.5 27.9h-85.9c-10.6 0-20.4-6.9-24.6-17.3l-25-62.5c-3.6-9-11.9-14.8-21.3-14.8-9.3 0-17.7 5.8-21.3 14.8l-25 62.5c-4.1 10.5-13.9 17.3-24.9 17.3zm-86.3-234c-9.2 0-16.6 8-16.6 17.9v188.2c0 9.9 7.7 17.9 17.1 17.9h85.9c6.9 0 13.1-4.3 15.8-11l25-62.5c5.1-12.8 17.1-21.1 30.6-21.1s25.5 8.3 30.6 21.1l25 62.5c2.6 6.6 8.8 11 15.3 11h85.9c9.8 0 17.5-7.9 17.5-17.9v-188.2c0-10-7.7-17.9-17.5-17.9zm238.9 158.2c-24.7 0-44.7-20.7-44.7-46.2s20.1-46.2 44.8-46.2 44.7 20.7 44.7 46.2c0 23.7-17.4 43.3-39.8 45.9v.3zm-1.1-10h1.1c19.2 0 34.8-16.2 34.8-36.2 0-19.9-15.6-36.2-34.7-36.2-19.2 0-34.8 16.2-34.8 36.2 0 19.6 15 35.5 33.6 36.2zm-161.5 10c-24.7 0-44.8-20.7-44.8-46.2s20.1-46.2 44.8-46.2 44.7 20.7 44.7 46.2-20.1 46.2-44.7 46.2zm0-82.4c-19.2 0-34.8 16.2-34.8 36.2s15.6 36.2 34.8 36.2c19.1 0 34.7-16.2 34.7-36.2s-15.6-36.2-34.7-36.2z" fill="#97d8e1"/><path d="m116.7 247.5v-10c6.9 0 13.1-4.3 15.8-11l25-62.5c5.1-12.8 17.1-21.1 30.6-21.1s25.5 8.3 30.6 21.1l25 62.5c2.6 6.6 8.8 11 15.3 11h85.9c9.8 0 17.5-7.9 17.5-17.9v-188.2h10v188.2c0 15.6-12.1 27.9-27.5 27.9h-85.9c-10.6 0-20.4-6.9-24.6-17.3l-25-62.5c-3.6-9-11.9-14.8-21.3-14.8-9.3 0-17.7 5.8-21.3 14.8l-25 62.5c-4.3 10.5-14.1 17.3-25.1 17.3z" fill="#f15758"/><path d="m30.8 247.5c-14.9 0-27.1-12.5-27.1-27.9v-188.2c0-15.4 12-27.9 26.7-27.9v10c-9.2 0-16.6 8-16.6 17.9v188.2c0 9.9 7.7 17.9 17.1 17.9v10z" fill="#7c87c3"/><path d="m106.7 171.7c-24.7 0-44.8-20.7-44.8-46.2s20.1-46.2 44.8-46.2v10c-19.2 0-34.8 16.2-34.8 36.2s15.6 36.2 34.8 36.2c19.1 0 34.7-16.2 34.7-36.2h10c0 25.5-20.1 46.2-44.7 46.2z" fill="#5dc8da"/></svg>